<svg width="618" height="190" viewBox="0 0 618 190" fill="none" xmlns="http://www.w3.org/2000/svg">
<rect width="618" height="190" fill="white"/>
<g clip-path="url(#clip0_2915_53487)">
<path d="M192.078 85.8779H181.258C180.379 85.8779 179.667 86.5904 179.667 87.4692V133.09C179.667 133.969 180.379 134.682 181.258 134.682H192.078C192.957 134.682 193.67 133.969 193.67 133.09V87.4692C193.67 86.5904 192.957 85.8779 192.078 85.8779Z" fill="#00003C"/>
<path d="M268.089 62.105H257.269C256.39 62.105 255.677 62.8174 255.677 63.6962V133.083C255.677 133.962 256.39 134.674 257.269 134.674H268.089C268.968 134.674 269.68 133.962 269.68 133.083V63.6962C269.68 62.8174 268.968 62.105 268.089 62.105Z" fill="#00003C"/>
<path d="M361.559 85.6636C352.967 85.6636 348.829 85.7376 337.69 85.8782C337.474 85.8473 337.254 85.8671 337.047 85.9361C336.84 86.0052 336.651 86.1215 336.497 86.2759C336.342 86.4303 336.226 86.6186 336.157 86.8257C336.088 87.0329 336.068 87.2533 336.099 87.4695V133.091C336.068 133.307 336.088 133.527 336.157 133.734C336.226 133.942 336.342 134.13 336.497 134.284C336.651 134.439 336.84 134.555 337.047 134.624C337.254 134.693 337.474 134.713 337.69 134.682H348.511C348.727 134.713 348.948 134.693 349.155 134.624C349.362 134.555 349.55 134.439 349.705 134.284C349.859 134.13 349.975 133.942 350.044 133.734C350.113 133.527 350.133 133.307 350.102 133.091V95.9513H357.319C365.593 95.9513 367.503 98.2901 367.503 107.098V133.091C367.472 133.307 367.491 133.527 367.561 133.734C367.63 133.942 367.746 134.13 367.9 134.284C368.055 134.439 368.243 134.555 368.45 134.624C368.657 134.693 368.878 134.713 369.094 134.682H379.914C380.131 134.713 380.351 134.693 380.558 134.624C380.765 134.555 380.954 134.439 381.108 134.284C381.262 134.13 381.379 133.942 381.448 133.734C381.517 133.527 381.537 133.307 381.506 133.091V103.804C381.506 89.1644 370.9 85.6636 361.559 85.6636Z" fill="#00003C"/>
<path d="M436.534 62.4014H425.706C424.648 62.4014 424.115 62.9343 424.115 64.4219V85.5598H413.08C402.718 85.5598 391.757 88.7424 391.757 110.28C391.757 131.285 402.688 134.889 413.08 134.889C426.557 134.889 430.798 134.793 436.534 134.682C436.75 134.71 436.969 134.688 437.175 134.618C437.38 134.547 437.567 134.431 437.721 134.277C437.875 134.124 437.991 133.937 438.061 133.731C438.131 133.525 438.153 133.306 438.126 133.091V64.4441C438.126 62.9565 437.593 62.4014 436.534 62.4014ZM424.115 124.705H415.84C408.521 124.705 405.76 121.204 405.76 110.487C405.76 99.2447 408.521 95.9512 415.84 95.9512H424.115V124.705Z" fill="#00003C"/>
<path d="M462.262 135.002C467.467 134.678 471.425 130.195 471.101 124.99C470.777 119.784 466.295 115.827 461.089 116.15C455.883 116.474 451.926 120.957 452.249 126.163C452.573 131.368 457.056 135.326 462.262 135.002Z" fill="#FF0050"/>
<path d="M186.668 73.888C191.884 73.888 196.112 69.6598 196.112 64.444C196.112 59.2282 191.884 55 186.668 55C181.452 55 177.224 59.2282 177.224 64.444C177.224 69.6598 181.452 73.888 186.668 73.888Z" fill="#00003C"/>
<path d="M304.903 85.6636C296.207 85.6636 291.433 85.7746 285.704 85.8782C285.481 85.858 285.257 85.8885 285.048 85.9675C284.838 86.0465 284.65 86.1719 284.496 86.3344C284.342 86.4968 284.227 86.6919 284.159 86.9052C284.092 87.1185 284.073 87.3443 284.106 87.5657V94.3526C284.074 94.5695 284.094 94.7907 284.164 94.9985C284.233 95.2063 284.35 95.395 284.505 95.5496C284.661 95.7042 284.85 95.8203 285.058 95.8888C285.266 95.9572 285.488 95.9761 285.704 95.9439H300.026C308.3 95.9439 310.424 98.2827 310.424 102.205V104.426H296.732C285.704 104.426 279.228 107.823 279.332 119.065C279.443 131.055 285.808 134.874 296.843 134.874C312.652 134.874 317.108 134.756 322.836 134.667C323.052 134.697 323.272 134.676 323.478 134.606C323.685 134.536 323.872 134.42 324.026 134.266C324.18 134.112 324.297 133.924 324.366 133.718C324.436 133.512 324.457 133.292 324.428 133.076V102.731C324.405 89.1644 313.814 85.6636 304.903 85.6636ZM310.424 124.705H299.811C295.459 124.705 293.446 123.432 293.342 119.08C293.239 114.728 295.355 113.463 299.707 113.463H310.424V124.705Z" fill="#00003C"/>
<path d="M234.666 107.415L222.039 103.278C219.175 102.323 218.338 101.472 218.338 99.3481C218.338 96.9057 219.611 95.8473 223.638 95.8473H241.882C242.101 95.8794 242.324 95.8593 242.534 95.7887C242.744 95.7181 242.934 95.599 243.089 95.4411C243.244 95.2831 243.36 95.0908 243.426 94.8797C243.493 94.6686 243.509 94.4448 243.473 94.2264V87.3581C243.501 87.1425 243.479 86.9234 243.409 86.7177C243.339 86.5119 243.222 86.325 243.068 86.1713C242.915 86.0176 242.728 85.9012 242.522 85.8311C242.316 85.761 242.097 85.739 241.882 85.7668C236.153 85.6558 231.52 85.5596 221.617 85.5596C211.714 85.5596 204.639 88.5201 204.639 98.2897V100.088C204.639 105.61 208.139 110.702 215.356 113.144L227.449 117.17C230.639 118.236 231.15 118.873 231.15 120.871C231.15 123.632 229.877 124.483 226.909 124.483H206.977C206.761 124.452 206.541 124.472 206.334 124.541C206.127 124.61 205.938 124.726 205.784 124.88C205.629 125.035 205.513 125.223 205.444 125.43C205.375 125.637 205.355 125.858 205.386 126.074V132.965C205.355 133.181 205.375 133.401 205.444 133.608C205.513 133.815 205.629 134.004 205.784 134.158C205.938 134.312 206.127 134.429 206.334 134.498C206.541 134.567 206.761 134.587 206.977 134.556C212.706 134.667 216.947 134.77 226.924 134.77C239.017 134.77 244.961 131.906 244.961 121.937V120.131C244.961 115.475 243.155 110.169 234.666 107.415Z" fill="#00003C"/>
<path d="M497.639 85.8779H486.818C485.94 85.8779 485.227 86.5904 485.227 87.4692V133.09C485.227 133.969 485.94 134.682 486.818 134.682H497.639C498.518 134.682 499.23 133.969 499.23 133.09V87.4692C499.23 86.5904 498.518 85.8779 497.639 85.8779Z" fill="#00003C"/>
<path d="M492.903 73.8263C498.105 73.4561 502.023 68.9385 501.653 63.7358C501.283 58.5332 496.765 54.6158 491.562 54.986C486.36 55.3562 482.442 59.8738 482.812 65.0764C483.183 70.279 487.7 74.1965 492.903 73.8263Z" fill="#00003C"/>
<path d="M540.233 107.415L527.606 103.278C524.742 102.323 523.906 101.472 523.906 99.3481C523.906 96.9057 525.179 95.8473 529.212 95.8473H547.464C547.682 95.8768 547.903 95.8548 548.111 95.7831C548.319 95.7113 548.507 95.5919 548.66 95.4342C548.814 95.2766 548.928 95.0852 548.994 94.8755C549.06 94.6657 549.076 94.4434 549.04 94.2264V87.3581C549.068 87.1425 549.046 86.9234 548.976 86.7177C548.906 86.5119 548.789 86.325 548.636 86.1713C548.482 86.0176 548.295 85.9012 548.089 85.8311C547.884 85.761 547.664 85.739 547.449 85.7668C541.72 85.6558 537.087 85.5596 527.184 85.5596C517.281 85.5596 510.176 88.5275 510.176 98.2897V100.088C510.176 105.61 513.677 110.702 520.893 113.144L533.016 117.17C536.199 118.236 536.717 118.873 536.717 120.871C536.717 123.632 535.444 124.483 532.469 124.483H512.537C512.317 124.446 512.092 124.462 511.88 124.529C511.667 124.597 511.474 124.714 511.316 124.871C511.157 125.028 511.039 125.22 510.969 125.432C510.9 125.643 510.882 125.869 510.916 126.089V132.979C510.887 133.195 510.908 133.415 510.978 133.621C511.047 133.828 511.163 134.015 511.318 134.169C511.472 134.323 511.659 134.44 511.866 134.509C512.072 134.579 512.292 134.6 512.508 134.571C518.236 134.682 522.485 134.785 532.454 134.785C544.555 134.785 550.491 131.921 550.491 121.951V120.131C550.52 115.475 548.722 110.169 540.233 107.415Z" fill="#00003C"/>
<path d="M73.8881 125.556C73.9019 126.8 73.6671 128.034 73.1975 129.186C72.7278 130.338 72.0327 131.385 71.1529 132.265C70.2732 133.145 69.2266 133.84 68.0745 134.309C66.9224 134.779 65.6881 135.014 64.4441 135C61.9394 135 59.5373 134.005 57.7662 132.234C55.9951 130.463 55.0001 128.061 55.0001 125.556C55.0001 123.051 55.9951 120.649 57.7662 118.878C59.5373 117.107 61.9394 116.112 64.4441 116.112C65.6881 116.098 66.9224 116.333 68.0745 116.803C69.2266 117.272 70.2732 117.967 71.1529 118.847C72.0327 119.727 72.7278 120.774 73.1975 121.926C73.6671 123.078 73.9019 124.312 73.8881 125.556ZM94.9668 116.112C93.1002 116.118 91.2772 116.677 89.7281 117.718C88.1789 118.759 86.9731 120.236 86.2628 121.962C85.5526 123.689 85.3698 125.587 85.7375 127.417C86.1052 129.247 87.007 130.927 88.329 132.244C89.6509 133.562 91.3337 134.459 93.1648 134.821C94.996 135.183 96.8933 134.994 98.6173 134.278C100.341 133.563 101.814 132.352 102.851 130.8C103.887 129.247 104.44 127.423 104.44 125.556C104.455 124.309 104.22 123.072 103.749 121.917C103.278 120.763 102.58 119.715 101.697 118.834C100.814 117.954 99.7635 117.259 98.6075 116.792C97.4515 116.324 96.2136 116.093 94.9668 116.112ZM125.527 116.112C123.659 116.112 121.833 116.666 120.28 117.704C118.727 118.741 117.516 120.216 116.801 121.942C116.087 123.668 115.9 125.566 116.264 127.398C116.628 129.23 117.528 130.913 118.849 132.234C120.169 133.555 121.852 134.454 123.684 134.819C125.516 135.183 127.415 134.996 129.141 134.281C130.866 133.566 132.341 132.356 133.379 130.803C134.417 129.25 134.971 127.424 134.971 125.556C134.984 124.314 134.75 123.083 134.283 121.933C133.815 120.782 133.122 119.737 132.246 118.858C131.369 117.978 130.326 117.283 129.177 116.811C128.029 116.34 126.798 116.102 125.556 116.112H125.527ZM94.9964 85.5597C93.127 85.5597 91.2996 86.1145 89.7458 87.1539C88.1919 88.1933 86.9815 89.6704 86.2678 91.3982C85.5541 93.126 85.3693 95.0268 85.7367 96.8598C86.1041 98.6927 87.0072 100.375 88.3317 101.695C89.6562 103.014 91.3424 103.91 93.1768 104.271C95.0111 104.631 96.9112 104.439 98.6362 103.718C100.361 102.998 101.834 101.781 102.867 100.224C103.9 98.6656 104.448 96.8361 104.44 94.9667C104.451 93.7226 104.213 92.489 103.74 91.3383C103.267 90.1877 102.569 89.1433 101.686 88.2667C100.803 87.3901 99.754 86.699 98.6 86.2341C97.446 85.7692 96.2107 85.5399 94.9668 85.5597H94.9964ZM125.556 85.5597C123.687 85.5597 121.859 86.1145 120.306 87.1539C118.752 88.1933 117.541 89.6704 116.828 91.3982C116.114 93.126 115.929 95.0268 116.296 96.8598C116.664 98.6927 117.567 100.375 118.891 101.695C120.216 103.014 121.902 103.91 123.736 104.271C125.571 104.631 127.471 104.439 129.196 103.718C130.921 102.998 132.393 101.781 133.427 100.224C134.46 98.6656 135.007 96.8361 135 94.9667C135.01 93.7254 134.772 92.4947 134.301 91.3465C133.829 90.1983 133.133 89.1556 132.254 88.2797C131.374 87.4037 130.329 86.7119 129.179 86.2449C128.029 85.7778 126.797 85.5449 125.556 85.5597ZM64.4441 55C63.2 54.9861 61.9657 55.2209 60.8137 55.6906C59.6616 56.1603 58.615 56.8554 57.7352 57.7351C56.8555 58.6149 56.1604 59.6615 55.6907 60.8136C55.221 61.9656 54.9862 63.1999 55.0001 64.444C54.9862 65.688 55.221 66.9223 55.6907 68.0744C56.1604 69.2264 56.8555 70.2731 57.7352 71.1528C58.615 72.0325 59.6616 72.7276 60.8137 73.1973C61.9657 73.667 63.2 73.9018 64.4441 73.8879C65.6881 73.9018 66.9224 73.667 68.0745 73.1973C69.2266 72.7276 70.2732 72.0325 71.1529 71.1528C72.0327 70.2731 72.7278 69.2264 73.1975 68.0744C73.6671 66.9223 73.9019 65.688 73.8881 64.444C73.9019 63.1999 73.6671 61.9656 73.1975 60.8136C72.7278 59.6615 72.0327 58.6149 71.1529 57.7351C70.2732 56.8554 69.2266 56.1603 68.0745 55.6906C66.9224 55.2209 65.6881 54.9861 64.4441 55ZM94.9668 55C93.7256 54.9901 92.4948 55.2278 91.3466 55.6994C90.1984 56.1709 89.1558 56.8668 88.2798 57.7462C87.4038 58.6256 86.712 59.671 86.245 60.821C85.7779 61.9711 85.545 63.2028 85.5598 64.444C85.5245 65.7059 85.7425 66.9622 86.201 68.1384C86.6596 69.3146 87.3493 70.387 88.2294 71.2921C89.1095 72.1972 90.1621 72.9166 91.3251 73.4079C92.488 73.8992 93.7376 74.1523 95.0001 74.1523C96.2625 74.1523 97.5122 73.8992 98.6751 73.4079C99.8381 72.9166 100.891 72.1972 101.771 71.2921C102.651 70.387 103.341 69.3146 103.799 68.1384C104.258 66.9622 104.476 65.7059 104.44 64.444C104.454 63.1974 104.219 61.9606 103.747 60.8066C103.276 59.6525 102.578 58.6046 101.695 57.7244C100.812 56.8443 99.7618 56.1498 98.6063 55.6819C97.4508 55.214 96.2133 54.9821 94.9668 55ZM125.556 55C124.312 54.9861 123.078 55.2209 121.926 55.6906C120.774 56.1603 119.727 56.8554 118.847 57.7351C117.968 58.6149 117.272 59.6615 116.803 60.8136C116.333 61.9656 116.098 63.1999 116.112 64.444C116.112 66.9487 117.107 69.3508 118.878 71.1219C120.649 72.893 123.051 73.8879 125.556 73.8879C128.061 73.8879 130.463 72.893 132.234 71.1219C134.005 69.3508 135 66.9487 135 64.444C135.014 63.1999 134.779 61.9656 134.309 60.8136C133.84 59.6615 133.145 58.6149 132.265 57.7351C131.385 56.8554 130.339 56.1603 129.187 55.6906C128.034 55.2209 126.8 54.9861 125.556 55Z" fill="url(#paint0_linear_2915_53487)"/>
<path d="M60.8137 86.2094C61.9658 85.7397 63.2001 85.5049 64.4441 85.5188C65.6882 85.5049 66.9225 85.7397 68.0745 86.2094C69.2266 86.6791 70.2732 87.3742 71.153 88.2539C72.0327 89.1337 72.7278 90.1803 73.1975 91.3323C73.6672 92.4844 73.902 93.7187 73.8881 94.9628C73.902 96.2068 73.6672 97.4411 73.1975 98.5932C72.7278 99.7452 72.0327 100.792 71.153 101.672C70.2732 102.551 69.2266 103.246 68.0745 103.716C66.9225 104.186 65.6882 104.421 64.4441 104.407C63.2001 104.421 61.9658 104.186 60.8137 103.716C59.6617 103.246 58.615 102.551 57.7353 101.672C56.8556 100.792 56.1605 99.7452 55.6908 98.5932C55.2211 97.4411 54.9863 96.2068 55.0002 94.9628C54.9863 93.7187 55.2211 92.4844 55.6908 91.3323C56.1605 90.1803 56.8556 89.1337 57.7353 88.2539C58.615 87.3742 59.6617 86.6791 60.8137 86.2094Z" fill="url(#paint1_linear_2915_53487)"/>
</g>
<defs>
<linearGradient id="paint0_linear_2915_53487" x1="57.7312" y1="57.731" x2="132.262" y2="132.262" gradientUnits="userSpaceOnUse">
<stop stop-color="#0161FD"/>
<stop offset="0.25" stop-color="#3F46D2"/>
<stop offset="0.51" stop-color="#812EA4"/>
<stop offset="0.77" stop-color="#C21578"/>
<stop offset="1" stop-color="#FD0050"/>
</linearGradient>
<linearGradient id="paint1_linear_2915_53487" x1="57.7312" y1="57.731" x2="132.262" y2="132.262" gradientUnits="userSpaceOnUse">
<stop stop-color="#0161FD"/>
<stop offset="0.25" stop-color="#3F46D2"/>
<stop offset="0.51" stop-color="#812EA4"/>
<stop offset="0.77" stop-color="#C21578"/>
<stop offset="1" stop-color="#FD0050"/>
</linearGradient>
<clipPath id="clip0_2915_53487">
<rect width="495.52" height="80" fill="white" transform="translate(55 55)"/>
</clipPath>
</defs>
</svg>
